<svg xmlns="http://www.w3.org/2000/svg" version="1.1" xmlns:xlink="http://www.w3.org/1999/xlink" xmlns:svgjs="http://svgjs.com/svgjs" width="1440" height="560" preserveAspectRatio="none" viewBox="0 0 1440 560"><g mask="url(&quot;#SvgjsMask1000&quot;)" fill="none"><rect width="1440" height="560" x="0" y="0" fill="#0e2a47"></rect><path d="M171.21 347.64L173.77 347.64L173.77 396.21L171.21 396.21z" stroke="#e73635"></path><path d="M1391.66 430.4L1428.79 430.4L1428.79 444.77L1391.66 444.77z" stroke="#037b0b"></path><path d="M748.87 486.8L767.36 486.8L767.36 505.29L748.87 505.29z" stroke="#e73635"></path><path d="M456.27 15.35a28.09 28.09 0 1 0-38.8 40.63z" stroke="#d3b714"></path><path d="M1223.69 498.81L1246.12 498.81L1246.12 521.15L1223.69 521.15z" stroke="#037b0b"></path><path d="M1187.69 490.76L1191.98 490.76L1191.98 495.05L1187.69 495.05z" fill="#037b0b"></path><path d="M1092.89 66.2a52.42 52.42 0 1 0 70.4 77.69z" stroke="#037b0b"></path><path d="M65.52 145a40.25 40.25 0 1 0 52.58-60.95z" stroke="#d3b714"></path><path d="M459.47 528.17 a14.81 14.81 0 1 0 29.62 0 a14.81 14.81 0 1 0 -29.62 0z" stroke="#e73635"></path><path d="M1386.61 311.68L1420.01 311.68L1420.01 345.08L1386.61 345.08z" stroke="#037b0b"></path><path d="M861.49 508.26L862.22 508.26L862.22 508.99L861.49 508.99z" stroke="#e73635"></path><path d="M1123.89 265.19a7.65 7.65 0 1 0-11.12 10.51z" stroke="#037b0b"></path><path d="M841.28 261.46a10.56 10.56 0 1 0 9.83-18.69z" fill="#d3b714"></path><path d="M961.28 224.01L1013.49 224.01L1013.49 267.36L961.28 267.36z" stroke="#d3b714"></path><path d="M598.93 440.96L607.91 440.96L607.91 473.31L598.93 473.31z" stroke="#d3b714"></path><path d="M207.2 58.13L210.32 58.13L210.32 92.95L207.2 92.95z" fill="#d3b714"></path><path d="M438.25 421.17 a32.67 32.67 0 1 0 65.34 0 a32.67 32.67 0 1 0 -65.34 0z" fill="#037b0b"></path><path d="M902.6 157.19 a0.42 0.42 0 1 0 0.84 0 a0.42 0.42 0 1 0 -0.84 0z" fill="#d3b714"></path><path d="M1044.95 137.34 a26.85 26.85 0 1 0 53.7 0 a26.85 26.85 0 1 0 -53.7 0z" fill="#e73635"></path><path d="M1022.64 43.49 a13.36 13.36 0 1 0 26.72 0 a13.36 13.36 0 1 0 -26.72 0z" stroke="#037b0b"></path><path d="M1303.25 462.21a35.98 35.98 0 1 0 71.76-5.3z" stroke="#e73635"></path><path d="M75.43 57.25 a6.54 6.54 0 1 0 13.08 0 a6.54 6.54 0 1 0 -13.08 0z" stroke="#e73635"></path><path d="M1375.93 26.63L1394.74 26.63L1394.74 40.43L1375.93 40.43z" fill="#037b0b"></path><path d="M1019.1 3.57L1073.08 3.57L1073.08 57.55L1019.1 57.55z" stroke="#037b0b"></path><path d="M394.61 0.1 a0.88 0.88 0 1 0 1.76 0 a0.88 0.88 0 1 0 -1.76 0z" fill="#d3b714"></path><path d="M1346.41 390.81a36.92 36.92 0 1 0 18.27-71.55z" fill="#e73635"></path><path d="M425.76 50.98L471.93 50.98L471.93 71.97L425.76 71.97z" stroke="#e73635"></path><path d="M993.83 239.41a26.44 26.44 0 1 0-36.26-38.49z" stroke="#037b0b"></path><path d="M488.94 482.55L516.37 482.55L516.37 509.98L488.94 509.98z" stroke="#e73635"></path><path d="M272.2 323.6L298.94 323.6L298.94 350.34L272.2 350.34z" stroke="#037b0b"></path><path d="M1280.63 214.08L1315.7 214.08L1315.7 249.15L1280.63 249.15z" stroke="#d3b714"></path><path d="M1241.59 6.18a44.63 44.63 0 1 0 88.06 14.54z" fill="#e73635"></path><path d="M533.63 47.06 a30.06 30.06 0 1 0 60.12 0 a30.06 30.06 0 1 0 -60.12 0z" fill="#d3b714"></path></g><defs><mask id="SvgjsMask1000"><rect width="1440" height="560" fill="#ffffff"></rect></mask></defs></svg>