<svg id="visual" viewBox="0 0 900 600" width="900" height="600" xmlns="http://www.w3.org/2000/svg" xmlns:xlink="http://www.w3.org/1999/xlink" version="1.1"><path d="M0 347L16.7 355.8C33.3 364.7 66.7 382.3 100 382.3C133.3 382.3 166.7 364.7 200 346.8C233.3 329 266.7 311 300 298C333.3 285 366.7 277 400 284.2C433.3 291.3 466.7 313.7 500 325C533.3 336.3 566.7 336.7 600 337.7C633.3 338.7 666.7 340.3 700 346.5C733.3 352.7 766.7 363.3 800 362.5C833.3 361.7 866.7 349.3 883.3 343.2L900 337L900 601L883.3 601C866.7 601 833.3 601 800 601C766.7 601 733.3 601 700 601C666.7 601 633.3 601 600 601C566.7 601 533.3 601 500 601C466.7 601 433.3 601 400 601C366.7 601 333.3 601 300 601C266.7 601 233.3 601 200 601C166.7 601 133.3 601 100 601C66.7 601 33.3 601 16.7 601L0 601Z" fill="#d1130e" stroke-linecap="round" stroke-linejoin="miter"></path></svg>